<?xml version="1.0" encoding="UTF-8" standalone="no"?>
<!-- Created with Inkscape (http://www.inkscape.org/) -->

<svg
   xmlns:dc="http://purl.org/dc/elements/1.1/"
   xmlns:cc="http://creativecommons.org/ns#"
   xmlns:rdf="http://www.w3.org/1999/02/22-rdf-syntax-ns#"
   xmlns:svg="http://www.w3.org/2000/svg"
   xmlns="http://www.w3.org/2000/svg"
   xmlns:sodipodi="http://sodipodi.sourceforge.net/DTD/sodipodi-0.dtd"
   xmlns:inkscape="http://www.inkscape.org/namespaces/inkscape"
   width="6.9978476mm"
   height="5.626307mm"
   viewBox="0 0 6.9978476 5.626307"
   version="1.1"
   id="svg8"
   inkscape:version="0.92.4 (5da689c313, 2019-01-14)"
   sodipodi:docname="AIRe_icon_content_exercise.svg">
  <defs
     id="defs2" />
  <sodipodi:namedview
     id="base"
     pagecolor="#ffffff"
     bordercolor="#666666"
     borderopacity="1.0"
     inkscape:pageopacity="0.0"
     inkscape:pageshadow="2"
     inkscape:zoom="2"
     inkscape:cx="-83.087791"
     inkscape:cy="-66.78852"
     inkscape:document-units="mm"
     inkscape:current-layer="layer1"
     showgrid="false"
     inkscape:pagecheckerboard="true"
     inkscape:window-width="2560"
     inkscape:window-height="1377"
     inkscape:window-x="-8"
     inkscape:window-y="-8"
     inkscape:window-maximized="1" />
  <metadata
     id="metadata5">
    <rdf:RDF>
      <cc:Work
         rdf:about="">
        <dc:format>image/svg+xml</dc:format>
        <dc:type
           rdf:resource="http://purl.org/dc/dcmitype/StillImage" />
        <dc:title></dc:title>
      </cc:Work>
    </rdf:RDF>
  </metadata>
  <g
     inkscape:label="Layer 1"
     inkscape:groupmode="layer"
     id="layer1"
     transform="translate(-101.50108,-145.68684)">
    <g
       id="g963">
      <rect
         ry="0.2576924"
         rx="0.2576924"
         y="146.09195"
         x="101.90619"
         height="4.8160868"
         width="6.1876273"
         id="rect848-4"
         style="opacity:1;vector-effect:none;fill:#f5f5f5;fill-opacity:1;fill-rule:evenodd;stroke:#a3a3a3;stroke-width:0.81022042;stroke-linecap:round;stroke-linejoin:round;stroke-miterlimit:4;stroke-dasharray:none;stroke-dashoffset:0;stroke-opacity:1;paint-order:markers stroke fill" />
      <path
         inkscape:connector-curvature="0"
         id="path892"
         d="m 104.93381,146.58331 a 0.3779762,0.3779762 0 0 0 -0.37827,0.37776 0.3779762,0.3779762 0 0 0 0.37827,0.37827 0.3779762,0.3779762 0 0 0 0.37776,-0.37827 0.3779762,0.3779762 0 0 0 -0.37776,-0.37776 z m -1.19217,0.87385 c -0.14276,0 -0.25787,0.0951 -0.25787,0.21291 0,0.11779 0.11511,0.21239 0.25787,0.21239 h 0.74724 c -2e-5,0.001 -10e-4,0.003 -10e-4,0.004 v 0.91829 l -0.55242,0.29663 c -0.0711,0.0382 -0.10736,0.11334 -0.10387,0.19068 h -0.003 l -0.004,0.91778 c -5.4e-4,0.11369 0.0941,0.20614 0.21188,0.2067 0.11778,5.5e-4 0.21288,-0.091 0.21342,-0.20464 l 0.003,-0.79892 0.47181,-0.25321 c 0.007,5.7e-4 0.013,0.004 0.0202,0.004 h 0.34313 l 1.06092,1.17874 c 0.076,0.0845 0.20751,0.0891 0.29507,0.0103 0.0876,-0.0788 0.0967,-0.21004 0.0207,-0.29456 l -1.08572,-1.20716 v -0.9648 c 0,-0.001 -0.001,-0.003 -0.001,-0.004 h 0.74724 c 0.14276,0 0.25786,-0.0946 0.25786,-0.21239 0,-0.11778 -0.1151,-0.21291 -0.25786,-0.21291 z"
         style="opacity:1;vector-effect:none;fill:#a3a3a3;fill-opacity:1;fill-rule:evenodd;stroke:none;stroke-width:0.75;stroke-linecap:round;stroke-linejoin:round;stroke-miterlimit:4;stroke-dasharray:none;stroke-dashoffset:0;stroke-opacity:1;paint-order:markers stroke fill" />
    </g>
  </g>
</svg>
